<mxfile host="Electron" modified="2023-05-05T10:48:20.771Z" agent="Mozilla/5.0 (X11; Linux x86_64) AppleWebKit/537.36 (KHTML, like Gecko) draw.io/21.2.1 Chrome/112.0.5615.87 Electron/24.1.2 Safari/537.36" etag="lnstIte8pviTNYkbzcfY" version="21.2.1" type="device">
  <diagram name="第 1 页" id="LXCgaofFlvdVkG8yf1ug">
    <mxGraphModel dx="1947" dy="753" grid="1" gridSize="10" guides="1" tooltips="1" connect="1" arrows="1" fold="1" page="1" pageScale="1" pageWidth="827" pageHeight="1169" math="0" shadow="0">
      <root>
        <mxCell id="0" />
        <mxCell id="1" parent="0" />
        <mxCell id="_IxcYJVWWc2GDDBeWdFl-3" style="edgeStyle=orthogonalEdgeStyle;rounded=1;orthogonalLoop=1;jettySize=auto;html=1;exitX=0.25;exitY=1;exitDx=0;exitDy=0;entryX=0;entryY=0.5;entryDx=0;entryDy=0;shadow=0;" parent="1" source="_IxcYJVWWc2GDDBeWdFl-1" target="sMKz2dUS62LLcVPBtnhl-166" edge="1">
          <mxGeometry relative="1" as="geometry">
            <mxPoint x="250" y="535" as="targetPoint" />
            <mxPoint x="113.5" y="480" as="sourcePoint" />
            <Array as="points">
              <mxPoint x="174" y="455" />
            </Array>
          </mxGeometry>
        </mxCell>
        <mxCell id="_IxcYJVWWc2GDDBeWdFl-82" style="edgeStyle=orthogonalEdgeStyle;rounded=1;orthogonalLoop=1;jettySize=auto;html=1;shadow=0;entryX=0;entryY=0.5;entryDx=0;entryDy=0;" parent="1" source="_IxcYJVWWc2GDDBeWdFl-1" target="_IxcYJVWWc2GDDBeWdFl-85" edge="1">
          <mxGeometry relative="1" as="geometry">
            <mxPoint x="390" y="152.5" as="targetPoint" />
          </mxGeometry>
        </mxCell>
        <mxCell id="sMKz2dUS62LLcVPBtnhl-232" style="edgeStyle=orthogonalEdgeStyle;rounded=1;orthogonalLoop=1;jettySize=auto;html=1;exitX=0.5;exitY=1;exitDx=0;exitDy=0;entryX=0;entryY=0.5;entryDx=0;entryDy=0;" parent="1" source="_IxcYJVWWc2GDDBeWdFl-1" target="_IxcYJVWWc2GDDBeWdFl-92" edge="1">
          <mxGeometry relative="1" as="geometry" />
        </mxCell>
        <mxCell id="_IxcYJVWWc2GDDBeWdFl-1" value="cache" style="rounded=1;whiteSpace=wrap;html=1;fillColor=#dae8fc;strokeColor=#6c8ebf;shadow=0;" parent="1" vertex="1">
          <mxGeometry x="140" y="110" width="134" height="85" as="geometry" />
        </mxCell>
        <mxCell id="_IxcYJVWWc2GDDBeWdFl-5" style="edgeStyle=orthogonalEdgeStyle;rounded=1;orthogonalLoop=1;jettySize=auto;html=1;exitX=0.25;exitY=1;exitDx=0;exitDy=0;shadow=0;entryX=0;entryY=0.5;entryDx=0;entryDy=0;" parent="1" source="_IxcYJVWWc2GDDBeWdFl-1" target="sMKz2dUS62LLcVPBtnhl-127" edge="1">
          <mxGeometry relative="1" as="geometry">
            <mxPoint x="252" y="780" as="targetPoint" />
            <mxPoint x="173.5" y="507" as="sourcePoint" />
            <Array as="points">
              <mxPoint x="174" y="715" />
            </Array>
          </mxGeometry>
        </mxCell>
        <mxCell id="_IxcYJVWWc2GDDBeWdFl-15" value="slab_full" style="text;html=1;align=center;verticalAlign=middle;resizable=0;points=[];autosize=1;strokeColor=none;fillColor=none;shadow=0;" parent="1" vertex="1">
          <mxGeometry x="167.5" y="425" width="70" height="30" as="geometry" />
        </mxCell>
        <mxCell id="_IxcYJVWWc2GDDBeWdFl-27" value="slab_partial" style="text;html=1;align=center;verticalAlign=middle;resizable=0;points=[];autosize=1;strokeColor=none;fillColor=none;shadow=0;" parent="1" vertex="1">
          <mxGeometry x="165.5" y="555" width="80" height="30" as="geometry" />
        </mxCell>
        <mxCell id="_IxcYJVWWc2GDDBeWdFl-29" value="slab_empty" style="text;html=1;align=center;verticalAlign=middle;resizable=0;points=[];autosize=1;strokeColor=none;fillColor=none;shadow=0;" parent="1" vertex="1">
          <mxGeometry x="165.5" y="675" width="80" height="30" as="geometry" />
        </mxCell>
        <mxCell id="_IxcYJVWWc2GDDBeWdFl-81" style="edgeStyle=orthogonalEdgeStyle;rounded=1;orthogonalLoop=1;jettySize=auto;html=1;entryX=0;entryY=0.5;entryDx=0;entryDy=0;shadow=0;" parent="1" source="_IxcYJVWWc2GDDBeWdFl-80" target="_IxcYJVWWc2GDDBeWdFl-1" edge="1">
          <mxGeometry relative="1" as="geometry" />
        </mxCell>
        <mxCell id="_IxcYJVWWc2GDDBeWdFl-80" value="cache_chain" style="rounded=1;whiteSpace=wrap;html=1;fillColor=#d5e8d4;strokeColor=#82b366;shadow=0;" parent="1" vertex="1">
          <mxGeometry x="-50" y="80" width="120" height="60" as="geometry" />
        </mxCell>
        <mxCell id="_IxcYJVWWc2GDDBeWdFl-83" value="list" style="text;html=1;align=center;verticalAlign=middle;resizable=0;points=[];autosize=1;strokeColor=none;fillColor=none;shadow=0;" parent="1" vertex="1">
          <mxGeometry x="270" y="128" width="40" height="30" as="geometry" />
        </mxCell>
        <mxCell id="_IxcYJVWWc2GDDBeWdFl-86" style="edgeStyle=orthogonalEdgeStyle;rounded=1;orthogonalLoop=1;jettySize=auto;html=1;shadow=0;" parent="1" source="_IxcYJVWWc2GDDBeWdFl-85" edge="1">
          <mxGeometry relative="1" as="geometry">
            <mxPoint x="806" y="152.5" as="targetPoint" />
          </mxGeometry>
        </mxCell>
        <mxCell id="_IxcYJVWWc2GDDBeWdFl-85" value="cache" style="rounded=1;whiteSpace=wrap;html=1;fillColor=#dae8fc;strokeColor=#6c8ebf;shadow=0;" parent="1" vertex="1">
          <mxGeometry x="460.5" y="110" width="134" height="85" as="geometry" />
        </mxCell>
        <mxCell id="_IxcYJVWWc2GDDBeWdFl-87" value="cache" style="rounded=1;whiteSpace=wrap;html=1;fillColor=#dae8fc;strokeColor=#6c8ebf;shadow=0;" parent="1" vertex="1">
          <mxGeometry x="806" y="110" width="134" height="85" as="geometry" />
        </mxCell>
        <mxCell id="_IxcYJVWWc2GDDBeWdFl-88" value="list" style="text;html=1;align=center;verticalAlign=middle;resizable=0;points=[];autosize=1;strokeColor=none;fillColor=none;shadow=0;" parent="1" vertex="1">
          <mxGeometry x="590" y="128" width="40" height="30" as="geometry" />
        </mxCell>
        <mxCell id="_IxcYJVWWc2GDDBeWdFl-92" value="" style="rounded=1;whiteSpace=wrap;html=1;fillColor=#fad9d5;strokeColor=#ae4132;shadow=0;" parent="1" vertex="1">
          <mxGeometry x="330" y="225" width="340" height="85" as="geometry" />
        </mxCell>
        <mxCell id="_IxcYJVWWc2GDDBeWdFl-93" value="objp_cache" style="text;html=1;align=center;verticalAlign=middle;resizable=0;points=[];autosize=1;strokeColor=none;fillColor=none;shadow=0;" parent="1" vertex="1">
          <mxGeometry x="210" y="235" width="80" height="30" as="geometry" />
        </mxCell>
        <mxCell id="_IxcYJVWWc2GDDBeWdFl-94" value="objp" style="rounded=0;whiteSpace=wrap;html=1;fillColor=#bac8d3;strokeColor=#23445d;shadow=0;" parent="1" vertex="1">
          <mxGeometry x="340.5" y="250" width="40" height="30" as="geometry" />
        </mxCell>
        <mxCell id="_IxcYJVWWc2GDDBeWdFl-95" value="objp" style="rounded=0;whiteSpace=wrap;html=1;fillColor=#bac8d3;strokeColor=#23445d;shadow=0;" parent="1" vertex="1">
          <mxGeometry x="380.5" y="250" width="40" height="30" as="geometry" />
        </mxCell>
        <mxCell id="_IxcYJVWWc2GDDBeWdFl-96" value="objp" style="rounded=0;whiteSpace=wrap;html=1;fillColor=#bac8d3;strokeColor=#23445d;shadow=0;" parent="1" vertex="1">
          <mxGeometry x="420.5" y="250" width="40" height="30" as="geometry" />
        </mxCell>
        <mxCell id="_IxcYJVWWc2GDDBeWdFl-97" value="objp" style="rounded=0;whiteSpace=wrap;html=1;fillColor=#bac8d3;strokeColor=#23445d;shadow=0;" parent="1" vertex="1">
          <mxGeometry x="460.5" y="250" width="40" height="30" as="geometry" />
        </mxCell>
        <mxCell id="_IxcYJVWWc2GDDBeWdFl-98" value="objp" style="rounded=0;whiteSpace=wrap;html=1;fillColor=#bac8d3;strokeColor=#23445d;shadow=0;" parent="1" vertex="1">
          <mxGeometry x="500.5" y="250" width="40" height="30" as="geometry" />
        </mxCell>
        <mxCell id="_IxcYJVWWc2GDDBeWdFl-99" value="objp" style="rounded=0;whiteSpace=wrap;html=1;fillColor=#bac8d3;strokeColor=#23445d;shadow=0;" parent="1" vertex="1">
          <mxGeometry x="540.5" y="250" width="40" height="30" as="geometry" />
        </mxCell>
        <mxCell id="_IxcYJVWWc2GDDBeWdFl-100" value="objp" style="rounded=0;whiteSpace=wrap;html=1;shadow=0;" parent="1" vertex="1">
          <mxGeometry x="580.5" y="250" width="40" height="30" as="geometry" />
        </mxCell>
        <mxCell id="_IxcYJVWWc2GDDBeWdFl-101" value="objp" style="rounded=0;whiteSpace=wrap;html=1;shadow=0;" parent="1" vertex="1">
          <mxGeometry x="620.5" y="250" width="40" height="30" as="geometry" />
        </mxCell>
        <mxCell id="_IxcYJVWWc2GDDBeWdFl-103" value="objp_cache" style="text;html=1;align=center;verticalAlign=middle;resizable=0;points=[];autosize=1;strokeColor=none;fillColor=none;shadow=0;" parent="1" vertex="1">
          <mxGeometry x="330" y="220" width="80" height="30" as="geometry" />
        </mxCell>
        <mxCell id="_IxcYJVWWc2GDDBeWdFl-4" style="edgeStyle=orthogonalEdgeStyle;rounded=1;orthogonalLoop=1;jettySize=auto;html=1;exitX=0.25;exitY=1;exitDx=0;exitDy=0;entryX=0;entryY=0.5;entryDx=0;entryDy=0;shadow=0;" parent="1" source="_IxcYJVWWc2GDDBeWdFl-1" target="sMKz2dUS62LLcVPBtnhl-98" edge="1">
          <mxGeometry relative="1" as="geometry">
            <mxPoint x="251" y="655" as="targetPoint" />
            <mxPoint x="222" y="485" as="sourcePoint" />
            <Array as="points">
              <mxPoint x="174" y="585" />
            </Array>
          </mxGeometry>
        </mxCell>
        <mxCell id="sMKz2dUS62LLcVPBtnhl-140" style="edgeStyle=orthogonalEdgeStyle;rounded=1;orthogonalLoop=1;jettySize=auto;html=1;entryX=0;entryY=0.5;entryDx=0;entryDy=0;" parent="1" source="sMKz2dUS62LLcVPBtnhl-98" target="sMKz2dUS62LLcVPBtnhl-114" edge="1">
          <mxGeometry relative="1" as="geometry" />
        </mxCell>
        <mxCell id="sMKz2dUS62LLcVPBtnhl-98" value="" style="rounded=1;whiteSpace=wrap;html=1;fillColor=#ffe6cc;strokeColor=#d79b00;movable=1;resizable=1;rotatable=1;deletable=1;editable=1;locked=0;connectable=1;shadow=0;" parent="1" vertex="1">
          <mxGeometry x="245.5" y="535" width="330" height="100" as="geometry" />
        </mxCell>
        <mxCell id="sMKz2dUS62LLcVPBtnhl-99" value="obj" style="rounded=0;whiteSpace=wrap;html=1;shadow=0;" parent="1" vertex="1">
          <mxGeometry x="398.5" y="565" width="40" height="30" as="geometry" />
        </mxCell>
        <mxCell id="sMKz2dUS62LLcVPBtnhl-100" value="obj" style="rounded=0;whiteSpace=wrap;html=1;fillColor=#bac8d3;strokeColor=#23445d;shadow=0;" parent="1" vertex="1">
          <mxGeometry x="438.5" y="565" width="40" height="30" as="geometry" />
        </mxCell>
        <mxCell id="sMKz2dUS62LLcVPBtnhl-101" value="obj" style="rounded=0;whiteSpace=wrap;html=1;shadow=0;" parent="1" vertex="1">
          <mxGeometry x="478.5" y="565" width="40" height="30" as="geometry" />
        </mxCell>
        <mxCell id="sMKz2dUS62LLcVPBtnhl-102" value="obj" style="rounded=0;whiteSpace=wrap;html=1;shadow=0;" parent="1" vertex="1">
          <mxGeometry x="518.5" y="565" width="40" height="30" as="geometry" />
        </mxCell>
        <mxCell id="sMKz2dUS62LLcVPBtnhl-103" value="slab" style="text;html=1;align=center;verticalAlign=middle;resizable=1;points=[];autosize=1;strokeColor=none;fillColor=none;movable=1;rotatable=1;deletable=1;editable=1;locked=0;connectable=1;shadow=0;" parent="1" vertex="1">
          <mxGeometry x="245.5" y="535" width="50" height="30" as="geometry" />
        </mxCell>
        <mxCell id="sMKz2dUS62LLcVPBtnhl-104" value="freelist" style="rounded=0;whiteSpace=wrap;html=1;fillColor=#e1d5e7;strokeColor=#9673a6;shadow=0;" parent="1" vertex="1">
          <mxGeometry x="357.5" y="565" width="41" height="30" as="geometry" />
        </mxCell>
        <mxCell id="sMKz2dUS62LLcVPBtnhl-109" style="edgeStyle=orthogonalEdgeStyle;rounded=1;orthogonalLoop=1;jettySize=auto;html=1;exitX=0.5;exitY=0;exitDx=0;exitDy=0;entryX=1;entryY=0;entryDx=0;entryDy=0;" parent="1" source="sMKz2dUS62LLcVPBtnhl-105" target="sMKz2dUS62LLcVPBtnhl-104" edge="1">
          <mxGeometry relative="1" as="geometry" />
        </mxCell>
        <mxCell id="sMKz2dUS62LLcVPBtnhl-105" value="struct slab" style="rounded=0;whiteSpace=wrap;html=1;fillColor=#e1d5e7;strokeColor=#9673a6;shadow=0;" parent="1" vertex="1">
          <mxGeometry x="317.5" y="565" width="40" height="30" as="geometry" />
        </mxCell>
        <mxCell id="sMKz2dUS62LLcVPBtnhl-106" value="" style="shape=curlyBracket;whiteSpace=wrap;html=1;rounded=1;labelPosition=left;verticalLabelPosition=middle;align=right;verticalAlign=middle;direction=south;rotation=-180;" parent="1" vertex="1">
          <mxGeometry x="317.5" y="595" width="81" height="20" as="geometry" />
        </mxCell>
        <mxCell id="sMKz2dUS62LLcVPBtnhl-107" value="slabmgt" style="text;html=1;align=center;verticalAlign=middle;resizable=0;points=[];autosize=1;strokeColor=none;fillColor=none;" parent="1" vertex="1">
          <mxGeometry x="323" y="605" width="70" height="30" as="geometry" />
        </mxCell>
        <mxCell id="sMKz2dUS62LLcVPBtnhl-110" value="mem" style="text;html=1;align=center;verticalAlign=middle;resizable=0;points=[];autosize=1;strokeColor=none;fillColor=none;" parent="1" vertex="1">
          <mxGeometry x="341" y="535" width="50" height="30" as="geometry" />
        </mxCell>
        <mxCell id="sMKz2dUS62LLcVPBtnhl-111" value="color" style="rounded=0;whiteSpace=wrap;html=1;shadow=0;fillStyle=auto;fillColor=#b0e3e6;strokeColor=#0e8088;glass=0;sketch=1;curveFitting=1;jiggle=2;" parent="1" vertex="1">
          <mxGeometry x="255.5" y="565" width="62" height="30" as="geometry" />
        </mxCell>
        <mxCell id="sMKz2dUS62LLcVPBtnhl-114" value="" style="rounded=1;whiteSpace=wrap;html=1;fillColor=#ffe6cc;strokeColor=#d79b00;movable=1;resizable=1;rotatable=1;deletable=1;editable=1;locked=0;connectable=1;shadow=0;" parent="1" vertex="1">
          <mxGeometry x="610" y="535" width="330" height="100" as="geometry" />
        </mxCell>
        <mxCell id="sMKz2dUS62LLcVPBtnhl-115" value="obj" style="rounded=0;whiteSpace=wrap;html=1;shadow=0;" parent="1" vertex="1">
          <mxGeometry x="763" y="565" width="40" height="30" as="geometry" />
        </mxCell>
        <mxCell id="sMKz2dUS62LLcVPBtnhl-116" value="obj" style="rounded=0;whiteSpace=wrap;html=1;fillColor=#bac8d3;strokeColor=#23445d;shadow=0;" parent="1" vertex="1">
          <mxGeometry x="803" y="565" width="40" height="30" as="geometry" />
        </mxCell>
        <mxCell id="sMKz2dUS62LLcVPBtnhl-117" value="obj" style="rounded=0;whiteSpace=wrap;html=1;shadow=0;" parent="1" vertex="1">
          <mxGeometry x="843" y="565" width="40" height="30" as="geometry" />
        </mxCell>
        <mxCell id="sMKz2dUS62LLcVPBtnhl-118" value="obj" style="rounded=0;whiteSpace=wrap;html=1;shadow=0;" parent="1" vertex="1">
          <mxGeometry x="883" y="565" width="40" height="30" as="geometry" />
        </mxCell>
        <mxCell id="sMKz2dUS62LLcVPBtnhl-119" value="slab" style="text;html=1;align=center;verticalAlign=middle;resizable=1;points=[];autosize=1;strokeColor=none;fillColor=none;movable=1;rotatable=1;deletable=1;editable=1;locked=0;connectable=1;shadow=0;" parent="1" vertex="1">
          <mxGeometry x="610" y="535" width="50" height="30" as="geometry" />
        </mxCell>
        <mxCell id="sMKz2dUS62LLcVPBtnhl-120" value="freelist" style="rounded=0;whiteSpace=wrap;html=1;fillColor=#e1d5e7;strokeColor=#9673a6;shadow=0;" parent="1" vertex="1">
          <mxGeometry x="722" y="565" width="41" height="30" as="geometry" />
        </mxCell>
        <mxCell id="sMKz2dUS62LLcVPBtnhl-121" style="edgeStyle=orthogonalEdgeStyle;rounded=1;orthogonalLoop=1;jettySize=auto;html=1;exitX=0.5;exitY=0;exitDx=0;exitDy=0;entryX=1;entryY=0;entryDx=0;entryDy=0;" parent="1" source="sMKz2dUS62LLcVPBtnhl-122" target="sMKz2dUS62LLcVPBtnhl-120" edge="1">
          <mxGeometry relative="1" as="geometry" />
        </mxCell>
        <mxCell id="sMKz2dUS62LLcVPBtnhl-122" value="struct slab" style="rounded=0;whiteSpace=wrap;html=1;fillColor=#e1d5e7;strokeColor=#9673a6;shadow=0;" parent="1" vertex="1">
          <mxGeometry x="682" y="565" width="40" height="30" as="geometry" />
        </mxCell>
        <mxCell id="sMKz2dUS62LLcVPBtnhl-123" value="" style="shape=curlyBracket;whiteSpace=wrap;html=1;rounded=1;labelPosition=left;verticalLabelPosition=middle;align=right;verticalAlign=middle;direction=south;rotation=-180;" parent="1" vertex="1">
          <mxGeometry x="682" y="595" width="81" height="20" as="geometry" />
        </mxCell>
        <mxCell id="sMKz2dUS62LLcVPBtnhl-124" value="slabmgt" style="text;html=1;align=center;verticalAlign=middle;resizable=0;points=[];autosize=1;strokeColor=none;fillColor=none;" parent="1" vertex="1">
          <mxGeometry x="687.5" y="605" width="70" height="30" as="geometry" />
        </mxCell>
        <mxCell id="sMKz2dUS62LLcVPBtnhl-125" value="mem" style="text;html=1;align=center;verticalAlign=middle;resizable=0;points=[];autosize=1;strokeColor=none;fillColor=none;" parent="1" vertex="1">
          <mxGeometry x="705.5" y="535" width="50" height="30" as="geometry" />
        </mxCell>
        <mxCell id="sMKz2dUS62LLcVPBtnhl-126" value="color" style="rounded=0;whiteSpace=wrap;html=1;shadow=0;fillStyle=auto;fillColor=#b0e3e6;strokeColor=#0e8088;glass=0;sketch=1;curveFitting=1;jiggle=2;" parent="1" vertex="1">
          <mxGeometry x="620" y="565" width="62" height="30" as="geometry" />
        </mxCell>
        <mxCell id="sMKz2dUS62LLcVPBtnhl-154" style="edgeStyle=orthogonalEdgeStyle;rounded=1;orthogonalLoop=1;jettySize=auto;html=1;exitX=1;exitY=0.5;exitDx=0;exitDy=0;entryX=0;entryY=0.5;entryDx=0;entryDy=0;" parent="1" source="sMKz2dUS62LLcVPBtnhl-127" target="sMKz2dUS62LLcVPBtnhl-141" edge="1">
          <mxGeometry relative="1" as="geometry" />
        </mxCell>
        <mxCell id="sMKz2dUS62LLcVPBtnhl-127" value="" style="rounded=1;whiteSpace=wrap;html=1;fillColor=#ffe6cc;strokeColor=#d79b00;movable=1;resizable=1;rotatable=1;deletable=1;editable=1;locked=0;connectable=1;shadow=0;" parent="1" vertex="1">
          <mxGeometry x="246.5" y="665" width="330" height="100" as="geometry" />
        </mxCell>
        <mxCell id="sMKz2dUS62LLcVPBtnhl-128" value="obj" style="rounded=0;whiteSpace=wrap;html=1;shadow=0;" parent="1" vertex="1">
          <mxGeometry x="399.5" y="695" width="40" height="30" as="geometry" />
        </mxCell>
        <mxCell id="sMKz2dUS62LLcVPBtnhl-129" value="obj" style="rounded=0;whiteSpace=wrap;html=1;shadow=0;" parent="1" vertex="1">
          <mxGeometry x="439.5" y="695" width="40" height="30" as="geometry" />
        </mxCell>
        <mxCell id="sMKz2dUS62LLcVPBtnhl-130" value="obj" style="rounded=0;whiteSpace=wrap;html=1;shadow=0;" parent="1" vertex="1">
          <mxGeometry x="479.5" y="695" width="40" height="30" as="geometry" />
        </mxCell>
        <mxCell id="sMKz2dUS62LLcVPBtnhl-131" value="obj" style="rounded=0;whiteSpace=wrap;html=1;shadow=0;" parent="1" vertex="1">
          <mxGeometry x="519.5" y="695" width="40" height="30" as="geometry" />
        </mxCell>
        <mxCell id="sMKz2dUS62LLcVPBtnhl-132" value="slab" style="text;html=1;align=center;verticalAlign=middle;resizable=1;points=[];autosize=1;strokeColor=none;fillColor=none;movable=1;rotatable=1;deletable=1;editable=1;locked=0;connectable=1;shadow=0;" parent="1" vertex="1">
          <mxGeometry x="246.5" y="665" width="50" height="30" as="geometry" />
        </mxCell>
        <mxCell id="sMKz2dUS62LLcVPBtnhl-133" value="freelist" style="rounded=0;whiteSpace=wrap;html=1;fillColor=#e1d5e7;strokeColor=#9673a6;shadow=0;" parent="1" vertex="1">
          <mxGeometry x="358.5" y="695" width="41" height="30" as="geometry" />
        </mxCell>
        <mxCell id="sMKz2dUS62LLcVPBtnhl-134" style="edgeStyle=orthogonalEdgeStyle;rounded=1;orthogonalLoop=1;jettySize=auto;html=1;exitX=0.5;exitY=0;exitDx=0;exitDy=0;entryX=1;entryY=0;entryDx=0;entryDy=0;" parent="1" source="sMKz2dUS62LLcVPBtnhl-135" target="sMKz2dUS62LLcVPBtnhl-133" edge="1">
          <mxGeometry relative="1" as="geometry" />
        </mxCell>
        <mxCell id="sMKz2dUS62LLcVPBtnhl-135" value="struct slab" style="rounded=0;whiteSpace=wrap;html=1;fillColor=#e1d5e7;strokeColor=#9673a6;shadow=0;" parent="1" vertex="1">
          <mxGeometry x="318.5" y="695" width="40" height="30" as="geometry" />
        </mxCell>
        <mxCell id="sMKz2dUS62LLcVPBtnhl-136" value="" style="shape=curlyBracket;whiteSpace=wrap;html=1;rounded=1;labelPosition=left;verticalLabelPosition=middle;align=right;verticalAlign=middle;direction=south;rotation=-180;" parent="1" vertex="1">
          <mxGeometry x="318.5" y="725" width="81" height="20" as="geometry" />
        </mxCell>
        <mxCell id="sMKz2dUS62LLcVPBtnhl-137" value="slabmgt" style="text;html=1;align=center;verticalAlign=middle;resizable=0;points=[];autosize=1;strokeColor=none;fillColor=none;" parent="1" vertex="1">
          <mxGeometry x="324" y="735" width="70" height="30" as="geometry" />
        </mxCell>
        <mxCell id="sMKz2dUS62LLcVPBtnhl-138" value="mem" style="text;html=1;align=center;verticalAlign=middle;resizable=0;points=[];autosize=1;strokeColor=none;fillColor=none;" parent="1" vertex="1">
          <mxGeometry x="342" y="665" width="50" height="30" as="geometry" />
        </mxCell>
        <mxCell id="sMKz2dUS62LLcVPBtnhl-139" value="color" style="rounded=0;whiteSpace=wrap;html=1;shadow=0;fillStyle=auto;fillColor=#b0e3e6;strokeColor=#0e8088;glass=0;sketch=1;curveFitting=1;jiggle=2;" parent="1" vertex="1">
          <mxGeometry x="256.5" y="695" width="62" height="30" as="geometry" />
        </mxCell>
        <mxCell id="sMKz2dUS62LLcVPBtnhl-141" value="" style="rounded=1;whiteSpace=wrap;html=1;fillColor=#ffe6cc;strokeColor=#d79b00;movable=1;resizable=1;rotatable=1;deletable=1;editable=1;locked=0;connectable=1;shadow=0;" parent="1" vertex="1">
          <mxGeometry x="610" y="665" width="330" height="100" as="geometry" />
        </mxCell>
        <mxCell id="sMKz2dUS62LLcVPBtnhl-142" value="obj" style="rounded=0;whiteSpace=wrap;html=1;shadow=0;" parent="1" vertex="1">
          <mxGeometry x="763" y="695" width="40" height="30" as="geometry" />
        </mxCell>
        <mxCell id="sMKz2dUS62LLcVPBtnhl-143" value="obj" style="rounded=0;whiteSpace=wrap;html=1;shadow=0;" parent="1" vertex="1">
          <mxGeometry x="803" y="695" width="40" height="30" as="geometry" />
        </mxCell>
        <mxCell id="sMKz2dUS62LLcVPBtnhl-144" value="obj" style="rounded=0;whiteSpace=wrap;html=1;shadow=0;" parent="1" vertex="1">
          <mxGeometry x="843" y="695" width="40" height="30" as="geometry" />
        </mxCell>
        <mxCell id="sMKz2dUS62LLcVPBtnhl-145" value="obj" style="rounded=0;whiteSpace=wrap;html=1;shadow=0;" parent="1" vertex="1">
          <mxGeometry x="883" y="695" width="40" height="30" as="geometry" />
        </mxCell>
        <mxCell id="sMKz2dUS62LLcVPBtnhl-146" value="slab" style="text;html=1;align=center;verticalAlign=middle;resizable=1;points=[];autosize=1;strokeColor=none;fillColor=none;movable=1;rotatable=1;deletable=1;editable=1;locked=0;connectable=1;shadow=0;" parent="1" vertex="1">
          <mxGeometry x="610" y="665" width="50" height="30" as="geometry" />
        </mxCell>
        <mxCell id="sMKz2dUS62LLcVPBtnhl-147" value="freelist" style="rounded=0;whiteSpace=wrap;html=1;fillColor=#e1d5e7;strokeColor=#9673a6;shadow=0;" parent="1" vertex="1">
          <mxGeometry x="722" y="695" width="41" height="30" as="geometry" />
        </mxCell>
        <mxCell id="sMKz2dUS62LLcVPBtnhl-148" style="edgeStyle=orthogonalEdgeStyle;rounded=1;orthogonalLoop=1;jettySize=auto;html=1;exitX=0.5;exitY=0;exitDx=0;exitDy=0;entryX=1;entryY=0;entryDx=0;entryDy=0;" parent="1" source="sMKz2dUS62LLcVPBtnhl-149" target="sMKz2dUS62LLcVPBtnhl-147" edge="1">
          <mxGeometry relative="1" as="geometry" />
        </mxCell>
        <mxCell id="sMKz2dUS62LLcVPBtnhl-149" value="struct slab" style="rounded=0;whiteSpace=wrap;html=1;fillColor=#e1d5e7;strokeColor=#9673a6;shadow=0;" parent="1" vertex="1">
          <mxGeometry x="682" y="695" width="40" height="30" as="geometry" />
        </mxCell>
        <mxCell id="sMKz2dUS62LLcVPBtnhl-150" value="" style="shape=curlyBracket;whiteSpace=wrap;html=1;rounded=1;labelPosition=left;verticalLabelPosition=middle;align=right;verticalAlign=middle;direction=south;rotation=-180;" parent="1" vertex="1">
          <mxGeometry x="682" y="725" width="81" height="20" as="geometry" />
        </mxCell>
        <mxCell id="sMKz2dUS62LLcVPBtnhl-151" value="slabmgt" style="text;html=1;align=center;verticalAlign=middle;resizable=0;points=[];autosize=1;strokeColor=none;fillColor=none;" parent="1" vertex="1">
          <mxGeometry x="687.5" y="735" width="70" height="30" as="geometry" />
        </mxCell>
        <mxCell id="sMKz2dUS62LLcVPBtnhl-152" value="mem" style="text;html=1;align=center;verticalAlign=middle;resizable=0;points=[];autosize=1;strokeColor=none;fillColor=none;" parent="1" vertex="1">
          <mxGeometry x="705.5" y="665" width="50" height="30" as="geometry" />
        </mxCell>
        <mxCell id="sMKz2dUS62LLcVPBtnhl-153" value="left_over" style="rounded=0;whiteSpace=wrap;html=1;shadow=0;fillStyle=auto;fillColor=#b0e3e6;strokeColor=#0e8088;glass=0;sketch=1;curveFitting=1;jiggle=2;" parent="1" vertex="1">
          <mxGeometry x="620" y="695" width="62" height="30" as="geometry" />
        </mxCell>
        <mxCell id="sMKz2dUS62LLcVPBtnhl-193" style="edgeStyle=orthogonalEdgeStyle;rounded=1;orthogonalLoop=1;jettySize=auto;html=1;exitX=1;exitY=0.5;exitDx=0;exitDy=0;entryX=0;entryY=0.5;entryDx=0;entryDy=0;" parent="1" source="sMKz2dUS62LLcVPBtnhl-166" target="sMKz2dUS62LLcVPBtnhl-180" edge="1">
          <mxGeometry relative="1" as="geometry" />
        </mxCell>
        <mxCell id="sMKz2dUS62LLcVPBtnhl-166" value="" style="rounded=1;whiteSpace=wrap;html=1;fillColor=#ffe6cc;strokeColor=#d79b00;movable=1;resizable=1;rotatable=1;deletable=1;editable=1;locked=0;connectable=1;shadow=0;" parent="1" vertex="1">
          <mxGeometry x="246.5" y="405" width="330" height="100" as="geometry" />
        </mxCell>
        <mxCell id="sMKz2dUS62LLcVPBtnhl-167" value="obj" style="rounded=0;whiteSpace=wrap;html=1;shadow=0;fillColor=#bac8d3;strokeColor=#23445d;" parent="1" vertex="1">
          <mxGeometry x="399.5" y="435" width="40" height="30" as="geometry" />
        </mxCell>
        <mxCell id="sMKz2dUS62LLcVPBtnhl-168" value="obj" style="rounded=0;whiteSpace=wrap;html=1;fillColor=#bac8d3;strokeColor=#23445d;shadow=0;" parent="1" vertex="1">
          <mxGeometry x="439.5" y="435" width="40" height="30" as="geometry" />
        </mxCell>
        <mxCell id="sMKz2dUS62LLcVPBtnhl-169" value="obj" style="rounded=0;whiteSpace=wrap;html=1;shadow=0;fillColor=#bac8d3;strokeColor=#23445d;" parent="1" vertex="1">
          <mxGeometry x="479.5" y="435" width="40" height="30" as="geometry" />
        </mxCell>
        <mxCell id="sMKz2dUS62LLcVPBtnhl-170" value="obj" style="rounded=0;whiteSpace=wrap;html=1;shadow=0;fillColor=#bac8d3;strokeColor=#23445d;" parent="1" vertex="1">
          <mxGeometry x="519.5" y="435" width="40" height="30" as="geometry" />
        </mxCell>
        <mxCell id="sMKz2dUS62LLcVPBtnhl-171" value="slab" style="text;html=1;align=center;verticalAlign=middle;resizable=1;points=[];autosize=1;strokeColor=none;fillColor=none;movable=1;rotatable=1;deletable=1;editable=1;locked=0;connectable=1;shadow=0;" parent="1" vertex="1">
          <mxGeometry x="246.5" y="405" width="50" height="30" as="geometry" />
        </mxCell>
        <mxCell id="sMKz2dUS62LLcVPBtnhl-172" value="freelist" style="rounded=0;whiteSpace=wrap;html=1;fillColor=#e1d5e7;strokeColor=#9673a6;shadow=0;" parent="1" vertex="1">
          <mxGeometry x="358.5" y="435" width="41" height="30" as="geometry" />
        </mxCell>
        <mxCell id="sMKz2dUS62LLcVPBtnhl-173" style="edgeStyle=orthogonalEdgeStyle;rounded=1;orthogonalLoop=1;jettySize=auto;html=1;exitX=0.5;exitY=0;exitDx=0;exitDy=0;entryX=1;entryY=0;entryDx=0;entryDy=0;" parent="1" source="sMKz2dUS62LLcVPBtnhl-174" target="sMKz2dUS62LLcVPBtnhl-172" edge="1">
          <mxGeometry relative="1" as="geometry" />
        </mxCell>
        <mxCell id="sMKz2dUS62LLcVPBtnhl-174" value="struct slab" style="rounded=0;whiteSpace=wrap;html=1;fillColor=#e1d5e7;strokeColor=#9673a6;shadow=0;" parent="1" vertex="1">
          <mxGeometry x="318.5" y="435" width="40" height="30" as="geometry" />
        </mxCell>
        <mxCell id="sMKz2dUS62LLcVPBtnhl-175" value="" style="shape=curlyBracket;whiteSpace=wrap;html=1;rounded=1;labelPosition=left;verticalLabelPosition=middle;align=right;verticalAlign=middle;direction=south;rotation=-180;" parent="1" vertex="1">
          <mxGeometry x="318.5" y="465" width="81" height="20" as="geometry" />
        </mxCell>
        <mxCell id="sMKz2dUS62LLcVPBtnhl-176" value="slabmgt" style="text;html=1;align=center;verticalAlign=middle;resizable=0;points=[];autosize=1;strokeColor=none;fillColor=none;" parent="1" vertex="1">
          <mxGeometry x="324" y="475" width="70" height="30" as="geometry" />
        </mxCell>
        <mxCell id="sMKz2dUS62LLcVPBtnhl-177" value="mem" style="text;html=1;align=center;verticalAlign=middle;resizable=0;points=[];autosize=1;strokeColor=none;fillColor=none;" parent="1" vertex="1">
          <mxGeometry x="342" y="405" width="50" height="30" as="geometry" />
        </mxCell>
        <mxCell id="sMKz2dUS62LLcVPBtnhl-178" value="color" style="rounded=0;whiteSpace=wrap;html=1;shadow=0;fillStyle=auto;fillColor=#b0e3e6;strokeColor=#0e8088;glass=0;sketch=1;curveFitting=1;jiggle=2;" parent="1" vertex="1">
          <mxGeometry x="256.5" y="435" width="62" height="30" as="geometry" />
        </mxCell>
        <mxCell id="sMKz2dUS62LLcVPBtnhl-180" value="" style="rounded=1;whiteSpace=wrap;html=1;fillColor=#ffe6cc;strokeColor=#d79b00;movable=1;resizable=1;rotatable=1;deletable=1;editable=1;locked=0;connectable=1;shadow=0;" parent="1" vertex="1">
          <mxGeometry x="610" y="405" width="330" height="100" as="geometry" />
        </mxCell>
        <mxCell id="sMKz2dUS62LLcVPBtnhl-181" value="obj" style="rounded=0;whiteSpace=wrap;html=1;shadow=0;fillColor=#bac8d3;strokeColor=#23445d;" parent="1" vertex="1">
          <mxGeometry x="763" y="435" width="40" height="30" as="geometry" />
        </mxCell>
        <mxCell id="sMKz2dUS62LLcVPBtnhl-182" value="obj" style="rounded=0;whiteSpace=wrap;html=1;fillColor=#bac8d3;strokeColor=#23445d;shadow=0;" parent="1" vertex="1">
          <mxGeometry x="803" y="435" width="40" height="30" as="geometry" />
        </mxCell>
        <mxCell id="sMKz2dUS62LLcVPBtnhl-183" value="obj" style="rounded=0;whiteSpace=wrap;html=1;shadow=0;fillColor=#bac8d3;strokeColor=#23445d;" parent="1" vertex="1">
          <mxGeometry x="843" y="435" width="40" height="30" as="geometry" />
        </mxCell>
        <mxCell id="sMKz2dUS62LLcVPBtnhl-184" value="obj" style="rounded=0;whiteSpace=wrap;html=1;shadow=0;fillColor=#bac8d3;strokeColor=#23445d;" parent="1" vertex="1">
          <mxGeometry x="883" y="435" width="40" height="30" as="geometry" />
        </mxCell>
        <mxCell id="sMKz2dUS62LLcVPBtnhl-185" value="slab" style="text;html=1;align=center;verticalAlign=middle;resizable=1;points=[];autosize=1;strokeColor=none;fillColor=none;movable=1;rotatable=1;deletable=1;editable=1;locked=0;connectable=1;shadow=0;" parent="1" vertex="1">
          <mxGeometry x="610" y="405" width="50" height="30" as="geometry" />
        </mxCell>
        <mxCell id="sMKz2dUS62LLcVPBtnhl-186" value="freelist" style="rounded=0;whiteSpace=wrap;html=1;fillColor=#e1d5e7;strokeColor=#9673a6;shadow=0;" parent="1" vertex="1">
          <mxGeometry x="722" y="435" width="41" height="30" as="geometry" />
        </mxCell>
        <mxCell id="sMKz2dUS62LLcVPBtnhl-187" style="edgeStyle=orthogonalEdgeStyle;rounded=1;orthogonalLoop=1;jettySize=auto;html=1;exitX=0.5;exitY=0;exitDx=0;exitDy=0;entryX=1;entryY=0;entryDx=0;entryDy=0;" parent="1" source="sMKz2dUS62LLcVPBtnhl-188" target="sMKz2dUS62LLcVPBtnhl-186" edge="1">
          <mxGeometry relative="1" as="geometry" />
        </mxCell>
        <mxCell id="sMKz2dUS62LLcVPBtnhl-188" value="struct slab" style="rounded=0;whiteSpace=wrap;html=1;fillColor=#e1d5e7;strokeColor=#9673a6;shadow=0;" parent="1" vertex="1">
          <mxGeometry x="682" y="435" width="40" height="30" as="geometry" />
        </mxCell>
        <mxCell id="sMKz2dUS62LLcVPBtnhl-189" value="" style="shape=curlyBracket;whiteSpace=wrap;html=1;rounded=1;labelPosition=left;verticalLabelPosition=middle;align=right;verticalAlign=middle;direction=south;rotation=-180;" parent="1" vertex="1">
          <mxGeometry x="682" y="465" width="81" height="20" as="geometry" />
        </mxCell>
        <mxCell id="sMKz2dUS62LLcVPBtnhl-190" value="slabmgt" style="text;html=1;align=center;verticalAlign=middle;resizable=0;points=[];autosize=1;strokeColor=none;fillColor=none;" parent="1" vertex="1">
          <mxGeometry x="687.5" y="475" width="70" height="30" as="geometry" />
        </mxCell>
        <mxCell id="sMKz2dUS62LLcVPBtnhl-191" value="mem" style="text;html=1;align=center;verticalAlign=middle;resizable=0;points=[];autosize=1;strokeColor=none;fillColor=none;" parent="1" vertex="1">
          <mxGeometry x="705.5" y="405" width="50" height="30" as="geometry" />
        </mxCell>
        <mxCell id="sMKz2dUS62LLcVPBtnhl-192" value="color" style="rounded=0;whiteSpace=wrap;html=1;shadow=0;fillStyle=auto;fillColor=#b0e3e6;strokeColor=#0e8088;glass=0;sketch=1;curveFitting=1;jiggle=2;" parent="1" vertex="1">
          <mxGeometry x="620" y="435" width="62" height="30" as="geometry" />
        </mxCell>
        <mxCell id="_IxcYJVWWc2GDDBeWdFl-108" style="edgeStyle=orthogonalEdgeStyle;rounded=1;orthogonalLoop=1;jettySize=auto;html=1;entryX=0.5;entryY=0;entryDx=0;entryDy=0;shadow=0;" parent="1" source="_IxcYJVWWc2GDDBeWdFl-95" target="sMKz2dUS62LLcVPBtnhl-168" edge="1">
          <mxGeometry relative="1" as="geometry">
            <Array as="points">
              <mxPoint x="400" y="360" />
              <mxPoint x="460" y="360" />
            </Array>
            <mxPoint x="409" y="515" as="targetPoint" />
          </mxGeometry>
        </mxCell>
        <mxCell id="_IxcYJVWWc2GDDBeWdFl-111" style="edgeStyle=orthogonalEdgeStyle;rounded=1;orthogonalLoop=1;jettySize=auto;html=1;entryX=0.5;entryY=0;entryDx=0;entryDy=0;exitX=0.5;exitY=1;exitDx=0;exitDy=0;shadow=0;" parent="1" source="_IxcYJVWWc2GDDBeWdFl-98" target="sMKz2dUS62LLcVPBtnhl-181" edge="1">
          <mxGeometry relative="1" as="geometry">
            <mxPoint x="709" y="515" as="targetPoint" />
          </mxGeometry>
        </mxCell>
        <mxCell id="sMKz2dUS62LLcVPBtnhl-228" style="edgeStyle=orthogonalEdgeStyle;rounded=1;orthogonalLoop=1;jettySize=auto;html=1;exitX=0.5;exitY=1;exitDx=0;exitDy=0;entryX=0.5;entryY=0;entryDx=0;entryDy=0;" parent="1" source="_IxcYJVWWc2GDDBeWdFl-94" target="sMKz2dUS62LLcVPBtnhl-167" edge="1">
          <mxGeometry relative="1" as="geometry">
            <Array as="points">
              <mxPoint x="360" y="380" />
              <mxPoint x="420" y="380" />
            </Array>
          </mxGeometry>
        </mxCell>
        <mxCell id="sMKz2dUS62LLcVPBtnhl-229" style="edgeStyle=orthogonalEdgeStyle;rounded=1;orthogonalLoop=1;jettySize=auto;html=1;exitX=0.5;exitY=1;exitDx=0;exitDy=0;entryX=0.5;entryY=0;entryDx=0;entryDy=0;" parent="1" source="_IxcYJVWWc2GDDBeWdFl-96" target="sMKz2dUS62LLcVPBtnhl-169" edge="1">
          <mxGeometry relative="1" as="geometry">
            <Array as="points">
              <mxPoint x="440" y="340" />
              <mxPoint x="500" y="340" />
            </Array>
          </mxGeometry>
        </mxCell>
        <mxCell id="sMKz2dUS62LLcVPBtnhl-230" style="edgeStyle=orthogonalEdgeStyle;rounded=1;orthogonalLoop=1;jettySize=auto;html=1;exitX=0.5;exitY=1;exitDx=0;exitDy=0;entryX=0.5;entryY=0;entryDx=0;entryDy=0;" parent="1" source="_IxcYJVWWc2GDDBeWdFl-97" target="sMKz2dUS62LLcVPBtnhl-100" edge="1">
          <mxGeometry relative="1" as="geometry">
            <Array as="points">
              <mxPoint x="480" y="320" />
              <mxPoint x="590" y="320" />
              <mxPoint x="590" y="520" />
              <mxPoint x="458" y="520" />
            </Array>
          </mxGeometry>
        </mxCell>
        <mxCell id="sMKz2dUS62LLcVPBtnhl-231" style="edgeStyle=orthogonalEdgeStyle;rounded=1;orthogonalLoop=1;jettySize=auto;html=1;exitX=0.5;exitY=1;exitDx=0;exitDy=0;entryX=0.5;entryY=0;entryDx=0;entryDy=0;" parent="1" source="_IxcYJVWWc2GDDBeWdFl-99" target="sMKz2dUS62LLcVPBtnhl-116" edge="1">
          <mxGeometry relative="1" as="geometry">
            <Array as="points">
              <mxPoint x="560" y="380" />
              <mxPoint x="600" y="380" />
              <mxPoint x="600" y="520" />
              <mxPoint x="823" y="520" />
            </Array>
          </mxGeometry>
        </mxCell>
      </root>
    </mxGraphModel>
  </diagram>
</mxfile>
